<svg id="Слой_1" data-name="Слой 1" xmlns="http://www.w3.org/2000/svg" viewBox="0 0 745 576.66"><defs><style>.cls-1{fill:#fff;stroke-width:5px;}.cls-1,.cls-2{stroke:#000;stroke-miterlimit:10;}.cls-2{fill:#ccc;}</style></defs><polygon class="cls-1" points="2.5 574.16 2.5 2.5 323.5 2.5 323.5 220.24 410.5 220.24 410.5 2.5 742.5 2.5 742.5 574.16 446.5 574.16 372.5 574.16 372.5 418.16 372.5 283.16 324.5 283.16 324.5 574.16 2.5 574.16"/><rect class="cls-2" x="8.5" y="9.16" width="36" height="82"/><rect class="cls-2" x="8.5" y="97.16" width="36" height="82"/><rect class="cls-2" x="8.5" y="186.16" width="36" height="82"/><rect class="cls-2" x="116.5" y="9.16" width="36" height="82"/><rect class="cls-2" x="156.5" y="9.16" width="36" height="82"/><rect class="cls-2" x="115.5" y="98.16" width="36" height="82"/><rect class="cls-2" x="155.5" y="98.16" width="36" height="82"/><rect class="cls-2" x="115.5" y="187.16" width="36" height="82"/><rect class="cls-2" x="155.5" y="187.16" width="36" height="82"/><rect class="cls-2" x="278.5" y="9.16" width="36" height="82"/><rect class="cls-2" x="278.5" y="97.16" width="36" height="82"/><rect class="cls-2" x="239.5" y="307.16" width="36" height="82"/><rect class="cls-2" x="239.5" y="396.16" width="36" height="82"/><rect class="cls-2" x="260.5" y="462.16" width="36" height="82" transform="translate(-224.66 781.66) rotate(-90)"/><rect class="cls-2" x="175.5" y="462.16" width="36" height="82" transform="translate(-309.66 696.66) rotate(-90)"/><rect class="cls-2" x="449.55" y="-23.89" width="36" height="102.1" transform="translate(440.39 494.71) rotate(-90)"/><rect class="cls-2" x="557.87" y="-23.89" width="36" height="102.1" transform="translate(548.71 603.03) rotate(-90)"/><rect class="cls-2" x="664.95" y="-23.89" width="36" height="102.1" transform="translate(655.79 710.11) rotate(-90)"/><rect class="cls-2" x="516.5" y="308.16" width="36" height="82"/><rect class="cls-2" x="556.5" y="308.16" width="36" height="82"/><rect class="cls-2" x="515.5" y="397.16" width="36" height="82"/><rect class="cls-2" x="555.5" y="397.16" width="36" height="82"/><rect class="cls-2" x="515.5" y="486.16" width="36" height="82"/><rect class="cls-2" x="555.5" y="486.16" width="36" height="82"/><rect class="cls-2" x="378.5" y="309.16" width="36" height="82"/><rect class="cls-2" x="378.5" y="397.16" width="36" height="82"/><rect class="cls-2" x="378.5" y="486.16" width="36" height="82"/><rect class="cls-2" x="700.5" y="309.16" width="36" height="82"/><rect class="cls-2" x="700.5" y="397.16" width="36" height="82"/><rect class="cls-2" x="700.5" y="486.16" width="36" height="82"/></svg>